<svg width="30" height="30" viewBox="0 0 30 30" fill="none" xmlns="http://www.w3.org/2000/svg">
<path d="M25.5 3H4.5C3.30653 3 2.16193 3.47411 1.31802 4.31802C0.474106 5.16193 0 6.30653 0 7.5V22.5C0 23.6935 0.474106 24.8381 1.31802 25.682C2.16193 26.5259 3.30653 27 4.5 27H25.5C26.6935 27 27.8381 26.5259 28.682 25.682C29.5259 24.8381 30 23.6935 30 22.5V7.5C30 6.30653 29.5259 5.16193 28.682 4.31802C27.8381 3.47411 26.6935 3 25.5 3ZM24.495 6L15 13.125L5.505 6H24.495ZM25.5 24H4.5C4.10218 24 3.72064 23.842 3.43934 23.5607C3.15804 23.2794 3 22.8978 3 22.5V7.875L14.1 16.2C14.3596 16.3947 14.6754 16.5 15 16.5C15.3246 16.5 15.6404 16.3947 15.9 16.2L27 7.875V22.5C27 22.8978 26.842 23.2794 26.5607 23.5607C26.2794 23.842 25.8978 24 25.5 24Z" fill="black"/>
</svg>
