<svg width="20" height="20" viewBox="0 0 20 20" fill="none" xmlns="http://www.w3.org/2000/svg">
<path d="M19.9895 10.1871C19.9895 9.3677 19.9214 8.76976 19.7742 8.14969H10.1992V11.848H15.8195C15.7062 12.7671 15.0943 14.1512 13.7346 15.0813L13.7155 15.2051L16.7429 17.4969L16.9527 17.5174C18.8789 15.7789 19.9895 13.221 19.9895 10.1871Z" fill="#4285F4"/>
<path d="M10.1992 19.9312C12.9527 19.9312 15.2643 19.0453 16.9527 17.5173L13.7346 15.0812C12.8734 15.6681 11.7176 16.0778 10.1992 16.0778C7.50241 16.0778 5.21351 14.3394 4.39758 11.9365L4.27799 11.9464L1.13003 14.3272L1.08887 14.439C2.76588 17.6944 6.2106 19.9312 10.1992 19.9312Z" fill="#34A853"/>
<path d="M4.39747 11.9366C4.18218 11.3166 4.05759 10.6521 4.05759 9.96565C4.05759 9.27908 4.18218 8.61473 4.38615 7.99466L4.38045 7.8626L1.19304 5.44366L1.08875 5.49214C0.397576 6.84305 0.000976562 8.36008 0.000976562 9.96565C0.000976562 11.5712 0.397576 13.0882 1.08875 14.4391L4.39747 11.9366Z" fill="#FBBC05"/>
<path d="M10.1993 3.85335C12.1142 3.85335 13.406 4.66167 14.1425 5.33717L17.0207 2.59106C15.2531 0.985494 12.9527 0 10.1993 0C6.21061 0 2.76588 2.23671 1.08887 5.49213L4.38627 7.99464C5.21353 5.59182 7.50243 3.85335 10.1993 3.85335Z" fill="#EB4335"/>
</svg>
