<svg width="266" height="177" viewBox="0 0 266 177" fill="none" xmlns="http://www.w3.org/2000/svg">
<g clip-path="url(#clip0_757_1445)">
<path d="M266 -29.2729H0V206.727H266V-29.2729Z" fill="#101011"/>
<g clip-path="url(#clip1_757_1445)">
<g clip-path="url(#clip2_757_1445)">
<path d="M98.6979 49.2452C97.8395 49.2452 97.1435 49.9331 97.1435 50.7814C97.1435 51.6297 97.8395 52.3176 98.6979 52.3176C99.5564 52.3176 100.252 51.6297 100.252 50.7814C100.252 49.9331 99.5564 49.2452 98.6979 49.2452ZM104.916 49.2452C104.057 49.2452 103.361 49.9328 103.361 50.7814C103.361 51.6297 104.057 52.3176 104.916 52.3176C105.774 52.3176 106.47 51.6297 106.47 50.7814C106.47 49.9328 105.774 49.2452 104.916 49.2452ZM111.133 49.2452C110.275 49.2452 109.579 49.9328 109.579 50.7814C109.579 51.6297 110.275 52.3176 111.133 52.3176C111.992 52.3176 112.688 51.6297 112.688 50.7814C112.688 49.9328 111.992 49.2452 111.133 49.2452ZM126.191 76.8965C125.868 77.0014 125.587 77.2085 125.394 77.4861C125.201 77.7637 125.106 78.0963 125.123 78.4327V93.7945C125.129 94.0517 125.201 94.3033 125.331 94.5261C125.461 94.7489 125.646 94.9358 125.869 95.0696C126.091 95.2034 126.344 95.2798 126.604 95.2919C126.864 95.304 127.123 95.2513 127.357 95.1386L142.901 87.4577C143.169 87.3341 143.396 87.1374 143.555 86.8908C143.714 86.6442 143.798 86.3579 143.798 86.0656C143.798 85.7732 143.714 85.4869 143.555 85.2403C143.396 84.9937 143.169 84.7971 142.901 84.6734L127.357 76.9925C126.996 76.8117 126.578 76.7773 126.191 76.8965ZM127.531 80.2366L140.125 86.1136L127.531 91.9906V80.2366ZM118.711 104.452C118.316 104.5 117.955 104.696 117.701 105C117.448 105.303 117.323 105.692 117.351 106.084V107.62H98.6979C98.537 107.595 98.3731 107.595 98.2122 107.62C97.8883 107.725 97.6082 107.932 97.4151 108.21C97.222 108.487 97.1266 108.82 97.1435 109.156V115.301C97.1436 115.708 97.3073 116.099 97.5988 116.387C97.8903 116.675 98.2857 116.837 98.6979 116.837H117.351V118.373C117.348 118.577 117.386 118.779 117.463 118.968C117.539 119.157 117.654 119.329 117.798 119.474C117.943 119.619 118.115 119.734 118.305 119.812C118.495 119.891 118.699 119.931 118.905 119.931C119.111 119.931 119.315 119.891 119.505 119.812C119.695 119.734 119.867 119.619 120.012 119.474C120.157 119.329 120.271 119.157 120.348 118.968C120.424 118.779 120.462 118.577 120.46 118.373V116.837H170.2C170.613 116.837 171.008 116.675 171.299 116.387C171.591 116.099 171.755 115.708 171.755 115.301V109.156C171.755 108.749 171.591 108.358 171.299 108.07C171.008 107.782 170.613 107.62 170.2 107.62H120.46V106.084C120.476 105.857 120.441 105.629 120.357 105.418C120.274 105.206 120.144 105.015 119.976 104.859C119.809 104.702 119.609 104.585 119.39 104.515C119.171 104.444 118.939 104.423 118.711 104.452ZM99.5517 110H117.351V114.457H99.5517V110ZM120.46 110H169.347V114.457H120.46V110Z" fill="url(#paint0_linear_757_1445)"/>
<path d="M92.5516 43.6C92.232 43.7047 91.9556 43.9116 91.7651 44.1888C91.5745 44.4659 91.4803 44.7981 91.497 45.134V127.969C91.497 128.376 91.6587 128.766 91.9463 129.054C92.234 129.342 92.6242 129.503 93.031 129.503H175.866C176.273 129.503 176.663 129.342 176.951 129.054C177.239 128.766 177.4 128.376 177.4 127.969V83.1002V69.0067V45.134C177.4 44.7272 177.239 44.337 176.951 44.0494C176.663 43.7617 176.273 43.6001 175.866 43.6H93.031C92.8722 43.5749 92.7104 43.5749 92.5516 43.6ZM93.8736 45.9766H175.024V55.8719H93.8736V45.9766ZM93.8736 58.2485H175.024V69.0067V83.1002V127.127H93.8736V58.2485Z" fill="#A8ADB3"/>
</g>
<path d="M64.4044 42.4012L63.3965 53.2932L73.1006 47.939L64.4044 42.4012Z" fill="url(#paint1_linear_757_1445)"/>
<path fill-rule="evenodd" clip-rule="evenodd" d="M212.322 84.0986C212.025 71.4058 208.632 58.6049 201.836 46.8346C180.206 9.37036 132.301 -3.46584 94.8367 18.1642C83.0664 24.9597 73.727 34.3488 67.1237 45.1928L69.3476 45.7887C75.7439 35.4842 84.7017 26.5631 95.9398 20.0748C132.349 -0.946002 178.905 11.5287 199.926 47.9377C206.414 59.1758 209.711 71.3805 210.098 83.5027L212.322 84.0986ZM57.8657 85.9614C57.8471 98.9111 61.1361 112.039 68.0768 124.061C89.0976 160.47 135.654 172.944 172.063 151.924C184.084 144.983 193.497 135.258 199.956 124.034L202.159 124.625C195.506 136.39 185.718 146.587 173.166 153.834C135.702 175.464 87.7962 162.628 66.1662 125.164C58.9191 112.611 55.541 98.8867 55.6622 85.371L57.8657 85.9614Z" fill="url(#paint2_linear_757_1445)"/>
<path d="M202.021 116.084L205.763 126.834L194.753 124.844L202.021 116.084Z" fill="url(#paint3_linear_757_1445)"/>
</g>
</g>
<defs>
<linearGradient id="paint0_linear_757_1445" x1="97.1416" y1="84.1912" x2="171.755" y2="84.1912" gradientUnits="userSpaceOnUse">
<stop stop-color="#03C3CF"/>
<stop offset="1" stop-color="#3EF4FF"/>
</linearGradient>
<linearGradient id="paint1_linear_757_1445" x1="69.1145" y1="44.8031" x2="62.8028" y2="52.8262" gradientUnits="userSpaceOnUse">
<stop stop-color="#03C3CF"/>
<stop offset="1" stop-color="#3EF4FF"/>
</linearGradient>
<linearGradient id="paint2_linear_757_1445" x1="172.404" y1="154.274" x2="94.0745" y2="18.6042" gradientUnits="userSpaceOnUse">
<stop stop-color="#03C3CF"/>
<stop offset="1" stop-color="#3EF4FF"/>
</linearGradient>
<linearGradient id="paint3_linear_757_1445" x1="195.645" y1="119.912" x2="206.655" y2="121.902" gradientUnits="userSpaceOnUse">
<stop stop-color="#03C3CF"/>
<stop offset="1" stop-color="#3EF4FF"/>
</linearGradient>
<clipPath id="clip0_757_1445">
<rect y="0.727051" width="266" height="176" rx="5" fill="white"/>
</clipPath>
<clipPath id="clip1_757_1445">
<rect width="214" height="161.052" fill="white" transform="translate(27 5.47424)"/>
</clipPath>
<clipPath id="clip2_757_1445">
<rect width="98.1753" height="98.1753" fill="white" transform="translate(85.3604 37.464)"/>
</clipPath>
</defs>
</svg>
