<svg width="19" height="20" viewBox="0 0 19 20" fill="none" xmlns="http://www.w3.org/2000/svg">
<path d="M16.4824 0.759705C17.0129 0.759705 17.5216 0.970418 17.8966 1.34549C18.2717 1.72056 18.4824 2.22927 18.4824 2.7597V16.7597C18.4824 17.2901 18.2717 17.7988 17.8966 18.1739C17.5216 18.549 17.0129 18.7597 16.4824 18.7597H2.48242C1.95199 18.7597 1.44328 18.549 1.06821 18.1739C0.693135 17.7988 0.482422 17.2901 0.482422 16.7597V2.7597C0.482422 2.22927 0.693135 1.72056 1.06821 1.34549C1.44328 0.970418 1.95199 0.759705 2.48242 0.759705H16.4824ZM15.9824 16.2597V10.9597C15.9824 10.0951 15.639 9.2659 15.0276 8.65454C14.4162 8.04317 13.587 7.6997 12.7224 7.6997C11.8724 7.6997 10.8824 8.2197 10.4024 8.9997V7.8897H7.61242V16.2597H10.4024V11.3297C10.4024 10.5597 11.0224 9.9297 11.7924 9.9297C12.1637 9.9297 12.5198 10.0772 12.7824 10.3398C13.0449 10.6023 13.1924 10.9584 13.1924 11.3297V16.2597H15.9824ZM4.36242 6.31971C4.80799 6.31971 5.2353 6.14271 5.55036 5.82764C5.86542 5.51258 6.04242 5.08527 6.04242 4.6397C6.04242 3.7097 5.29242 2.9497 4.36242 2.9497C3.91421 2.9497 3.48435 3.12776 3.16741 3.44469C2.85047 3.76163 2.67242 4.19149 2.67242 4.6397C2.67242 5.5697 3.43242 6.31971 4.36242 6.31971ZM5.75242 16.2597V7.8897H2.98242V16.2597H5.75242Z" fill="#3177B0"/>
</svg>
