<svg width="129" height="16" viewBox="0 0 129 16" fill="none" xmlns="http://www.w3.org/2000/svg">
<path d="M6.27635 1.70515C6.54975 1.07201 6.85912 0.633135 7.20447 0.388514C7.5642 0.129505 8.08222 0 8.75853 0C9.40605 0 9.90968 0.129505 10.2694 0.388514C10.6435 0.633135 10.9673 1.07201 11.2407 1.70515L16.9389 15.2816H13.9387L12.3847 11.4612H5.1108L3.57832 15.2816H0.578125L6.27635 1.70515ZM5.84466 9.43228H11.6508L9.19021 3.28079C9.14704 3.16568 9.08948 3.03617 9.01754 2.89228C8.94559 2.73399 8.85925 2.65485 8.75853 2.65485C8.6578 2.65485 8.57146 2.73399 8.49952 2.89228C8.42757 3.03617 8.37001 3.16568 8.32684 3.28079L5.84466 9.43228Z" fill="white"/>
<path d="M19.1747 2.43901C19.1747 1.57564 19.3762 0.985677 19.7791 0.669108C20.1964 0.338151 20.7288 0.172672 21.3763 0.172672H28.8876C29.6934 0.172672 30.3482 0.309372 30.8518 0.582772C31.3554 0.841782 31.7439 1.19432 32.0173 1.6404C32.3051 2.07208 32.4922 2.5829 32.5785 3.17287C32.6792 3.76284 32.7296 4.38159 32.7296 5.02911C32.7296 5.67664 32.6792 6.29538 32.5785 6.88535C32.4922 7.47532 32.3051 8.00053 32.0173 8.461C31.7439 8.90707 31.3554 9.2668 30.8518 9.5402C30.3482 9.79921 29.6934 9.92872 28.8876 9.92872H22.0239V15.2816H19.1747V2.43901ZM27.4846 7.66238C27.9739 7.66238 28.3696 7.60482 28.6718 7.48971C28.974 7.37459 29.2042 7.20911 29.3625 6.99327C29.5351 6.77743 29.6503 6.50403 29.7078 6.17307C29.7654 5.84212 29.7942 5.4608 29.7942 5.02911C29.7942 4.59743 29.7654 4.2233 29.7078 3.90673C29.6503 3.57578 29.5351 3.30238 29.3625 3.08654C29.2042 2.87069 28.974 2.71241 28.6718 2.61168C28.3696 2.49657 27.9739 2.43901 27.4846 2.43901H23.1031C22.6714 2.43901 22.3836 2.51096 22.2397 2.65485C22.0958 2.79875 22.0239 3.08654 22.0239 3.51822V7.66238H27.4846Z" fill="white"/>
<path d="M42.1304 12.3677C42.1591 12.4253 42.1951 12.4972 42.2383 12.5836C42.2814 12.6555 42.3534 12.6915 42.4541 12.6915C42.5548 12.6915 42.6268 12.6555 42.67 12.5836C42.7131 12.4972 42.7491 12.4253 42.7779 12.3677L47.289 0.172672H50.3755L44.8931 13.8139C44.8068 14.0153 44.6989 14.2168 44.5694 14.4182C44.4542 14.6197 44.3032 14.7995 44.1161 14.9578C43.929 15.1017 43.6988 15.2168 43.4254 15.3032C43.152 15.4039 42.8282 15.4543 42.4541 15.4543C42.08 15.4543 41.7562 15.4039 41.4828 15.3032C41.2094 15.2168 40.9792 15.1017 40.7921 14.9578C40.6051 14.7995 40.4468 14.6197 40.3173 14.4182C40.2022 14.2168 40.1014 14.0153 40.0151 13.8139L34.5327 0.172672H37.6193L42.1304 12.3677Z" fill="white"/>
<path d="M52.6235 15.2816V0.172672H55.4726V15.2816H52.6235Z" fill="white"/>
<path d="M58.9034 13.0153H67.2781C67.6235 13.0153 67.8896 12.9577 68.0767 12.8426C68.2638 12.7131 68.4005 12.562 68.4868 12.3893C68.5875 12.2166 68.6451 12.0368 68.6595 11.8497C68.6883 11.6626 68.7027 11.5044 68.7027 11.3749C68.7027 11.231 68.6883 11.0799 68.6595 10.9216C68.6307 10.7633 68.566 10.6122 68.4652 10.4683C68.3645 10.31 68.2134 10.1661 68.012 10.0366C67.8249 9.89275 67.5659 9.77044 67.2349 9.66971L61.2777 7.79189C60.2848 7.47532 59.6085 6.99327 59.2488 6.34575C58.8891 5.69822 58.7092 4.85644 58.7092 3.8204C58.7092 2.74119 58.9826 1.86343 59.5294 1.18713C60.0906 0.510824 60.9683 0.172672 62.1627 0.172672H70.8611V2.43901H62.9181C62.5584 2.43901 62.2562 2.55413 62.0116 2.78436C61.7669 3.01459 61.6446 3.4031 61.6446 3.9499C61.6446 4.12258 61.6518 4.28806 61.6662 4.44634C61.695 4.60462 61.7526 4.76291 61.8389 4.92119C61.9396 5.06509 62.0763 5.20179 62.249 5.33129C62.4217 5.44641 62.6591 5.55433 62.9613 5.65505L68.4868 7.40337C69.0336 7.57605 69.5013 7.7703 69.8898 7.98614C70.2927 8.20199 70.6236 8.46819 70.8827 8.78476C71.1417 9.08694 71.3287 9.45387 71.4438 9.88555C71.5733 10.3028 71.6381 10.8065 71.6381 11.3964C71.6381 11.9576 71.5733 12.4757 71.4438 12.9505C71.3287 13.4254 71.1417 13.8355 70.8827 14.1808C70.6236 14.5261 70.2855 14.7995 69.8682 15.001C69.4653 15.1881 68.9761 15.2816 68.4005 15.2816H58.9034V13.0153Z" fill="white"/>
<path d="M74.8796 15.2816V0.172672H77.7287V15.2816H74.8796Z" fill="white"/>
<path d="M96.1246 0C104.729 0 105.924 0.115115 106.902 0.345346C107.895 0.575577 108.701 0.985676 109.32 1.57564C109.938 2.15122 110.385 2.94264 110.658 3.9499C110.946 4.94277 111.09 6.20185 111.09 7.72713C111.09 9.25241 110.946 10.5187 110.658 11.5259C110.385 12.5188 109.938 13.3102 109.32 13.9002C108.701 14.4758 107.895 14.8787 106.902 15.1089C105.924 15.3392 104.729 15.4543 96.1246 15.4543C94.7288 15.4543 86.3398 15.3392 85.3469 15.1089C84.3684 14.8787 83.5698 14.4758 82.9511 13.9002C82.3323 13.3102 81.8791 12.5188 81.5913 11.5259C81.3179 10.5187 81.1812 9.25241 81.1812 7.72713C81.1812 6.20185 81.3179 4.94277 81.5913 3.9499C81.8791 2.94264 82.3323 2.15122 82.9511 1.57564C83.5698 0.985676 84.3684 0.575577 85.3469 0.345346C86.3398 0.115115 94.7288 0 96.1246 0ZM84.1166 7.72713C84.1166 8.80634 84.1886 9.69849 84.3325 10.4036C84.4907 11.1087 84.757 11.6698 85.1311 12.0871C85.5052 12.49 85.9944 12.7778 86.5988 12.9505C87.2176 13.1088 95.1893 13.1879 96.1246 13.1879C97.0455 13.1879 105.01 13.1088 105.629 12.9505C106.262 12.7778 106.758 12.49 107.118 12.0871C107.492 11.6698 107.758 11.1087 107.917 10.4036C108.075 9.69849 108.154 8.80634 108.154 7.72713C108.154 6.64792 108.075 5.75578 107.917 5.0507C107.758 4.34561 107.492 3.79162 107.118 3.38872C106.758 2.97142 106.262 2.68363 105.629 2.52535C105.01 2.35267 97.0455 2.26634 96.1246 2.26634C95.1893 2.26634 87.2176 2.35267 86.5988 2.52535C85.9944 2.68363 85.5052 2.97142 85.1311 3.38872C84.757 3.79162 84.4907 4.34561 84.3325 5.0507C84.1886 5.75578 84.1166 6.64792 84.1166 7.72713Z" fill="white"/>
<path d="M129.001 13.3174C129.001 14.0801 128.778 14.6269 128.332 14.9578C127.9 15.2888 127.375 15.4543 126.756 15.4543C126.296 15.4543 125.857 15.3751 125.439 15.2168C125.022 15.0586 124.648 14.7132 124.317 14.1808L117.95 4.12258C117.835 3.96429 117.755 3.86357 117.712 3.8204C117.669 3.77723 117.633 3.75565 117.604 3.75565C117.547 3.75565 117.482 3.79162 117.41 3.86357C117.338 3.92112 117.302 4.02905 117.302 4.18733V15.2816H114.539V2.0505C114.539 1.40297 114.741 0.89934 115.144 0.539604C115.547 0.179868 116.115 0 116.849 0C117.525 0 118.043 0.115115 118.403 0.345346C118.763 0.575577 119.043 0.856171 119.245 1.18713L125.655 11.3101C125.713 11.3821 125.756 11.4612 125.785 11.5475C125.828 11.6339 125.9 11.677 126.001 11.677C126.116 11.677 126.18 11.6339 126.195 11.5475C126.224 11.4468 126.238 11.3677 126.238 11.3101V0.172672H129.001V13.3174Z" fill="white"/>
<ellipse cx="91.5933" cy="7.72712" rx="3.14605" ry="3.20124" fill="#225AAF"/>
<circle cx="101.031" cy="7.72712" r="3.20124" fill="#F1CE46"/>
</svg>
